<?xml version="1.0" encoding="UTF-8"?>
<svg xmlns="http://www.w3.org/2000/svg" xmlns:xlink="http://www.w3.org/1999/xlink" width="5000" height="4500" viewBox="0 0 5000 4500">
<defs>
<clipPath id="clip-0">
<path clip-rule="nonzero" d="M 1984 4347 L 3016 4347 L 3016 4441 L 1984 4441 Z M 1984 4347 "/>
</clipPath>
<clipPath id="clip-1">
<path clip-rule="nonzero" d="M 2500 4440.519531 C 2215.039062 4440.519531 1984.03125 4419.699219 1984.03125 4394.03125 C 1984.03125 4368.351562 2215.039062 4347.539062 2500 4347.539062 C 2784.960938 4347.539062 3015.96875 4368.351562 3015.96875 4394.03125 C 3015.96875 4419.699219 2784.960938 4440.519531 2500 4440.519531 "/>
</clipPath>
<clipPath id="clip-2">
<path clip-rule="nonzero" d="M 2500 4440.519531 C 2215.039062 4440.519531 1984.03125 4419.699219 1984.03125 4394.03125 C 1984.03125 4368.351562 2215.039062 4347.539062 2500 4347.539062 C 2784.960938 4347.539062 3015.96875 4368.351562 3015.96875 4394.03125 C 3015.96875 4419.699219 2784.960938 4440.519531 2500 4440.519531 "/>
</clipPath>
<radialGradient id="radial-pattern-0" gradientUnits="userSpaceOnUse" cx="0" cy="0" fx="0" fy="0" r="281.2178" gradientTransform="matrix(1.834674, 0, 0, 0.165326, 2500, 4394.03)">
<stop offset="0" stop-color="rgb(59.002686%, 59.394836%, 59.313965%)" stop-opacity="1"/>
<stop offset="0.0078125" stop-color="rgb(59.121704%, 59.632874%, 59.577942%)" stop-opacity="1"/>
<stop offset="0.0117188" stop-color="rgb(59.20105%, 59.791565%, 59.753418%)" stop-opacity="1"/>
<stop offset="0.015625" stop-color="rgb(59.346008%, 59.94873%, 59.941101%)" stop-opacity="1"/>
<stop offset="0.0195312" stop-color="rgb(59.562683%, 60.10437%, 60.139465%)" stop-opacity="1"/>
<stop offset="0.0234375" stop-color="rgb(59.785461%, 60.26001%, 60.340881%)" stop-opacity="1"/>
<stop offset="0.0273438" stop-color="rgb(60.005188%, 60.414124%, 60.540771%)" stop-opacity="1"/>
<stop offset="0.03125" stop-color="rgb(60.206604%, 60.546875%, 60.688782%)" stop-opacity="1"/>
<stop offset="0.0351562" stop-color="rgb(60.380554%, 60.652161%, 60.777283%)" stop-opacity="1"/>
<stop offset="0.0390625" stop-color="rgb(60.552979%, 60.75592%, 60.85968%)" stop-opacity="1"/>
<stop offset="0.0429688" stop-color="rgb(60.723877%, 60.85968%, 60.942078%)" stop-opacity="1"/>
<stop offset="0.046875" stop-color="rgb(60.894775%, 60.992432%, 61.062622%)" stop-opacity="1"/>
<stop offset="0.0507812" stop-color="rgb(61.064148%, 61.16333%, 61.227417%)" stop-opacity="1"/>
<stop offset="0.0546875" stop-color="rgb(61.233521%, 61.341858%, 61.404419%)" stop-opacity="1"/>
<stop offset="0.0585938" stop-color="rgb(61.402893%, 61.51886%, 61.579895%)" stop-opacity="1"/>
<stop offset="0.0625" stop-color="rgb(61.572266%, 61.697388%, 61.732483%)" stop-opacity="1"/>
<stop offset="0.0664062" stop-color="rgb(61.743164%, 61.875916%, 61.849976%)" stop-opacity="1"/>
<stop offset="0.0703125" stop-color="rgb(61.912537%, 62.054443%, 61.959839%)" stop-opacity="1"/>
<stop offset="0.0742188" stop-color="rgb(62.083435%, 62.234497%, 62.069702%)" stop-opacity="1"/>
<stop offset="0.078125" stop-color="rgb(62.243652%, 62.402344%, 62.216187%)" stop-opacity="1"/>
<stop offset="0.0820312" stop-color="rgb(62.387085%, 62.553406%, 62.411499%)" stop-opacity="1"/>
<stop offset="0.0859375" stop-color="rgb(62.524414%, 62.698364%, 62.625122%)" stop-opacity="1"/>
<stop offset="0.0898438" stop-color="rgb(62.661743%, 62.843323%, 62.837219%)" stop-opacity="1"/>
<stop offset="0.09375" stop-color="rgb(62.837219%, 63.005066%, 63.038635%)" stop-opacity="1"/>
<stop offset="0.0976562" stop-color="rgb(63.07373%, 63.194275%, 63.221741%)" stop-opacity="1"/>
<stop offset="0.101562" stop-color="rgb(63.334656%, 63.392639%, 63.398743%)" stop-opacity="1"/>
<stop offset="0.105469" stop-color="rgb(63.595581%, 63.592529%, 63.577271%)" stop-opacity="1"/>
<stop offset="0.109375" stop-color="rgb(63.830566%, 63.809204%, 63.764954%)" stop-opacity="1"/>
<stop offset="0.113281" stop-color="rgb(64.022827%, 64.054871%, 63.969421%)" stop-opacity="1"/>
<stop offset="0.117188" stop-color="rgb(64.1922%, 64.31427%, 64.179993%)" stop-opacity="1"/>
<stop offset="0.121094" stop-color="rgb(64.364624%, 64.575195%, 64.39209%)" stop-opacity="1"/>
<stop offset="0.125" stop-color="rgb(64.558411%, 64.822388%, 64.596558%)" stop-opacity="1"/>
<stop offset="0.128906" stop-color="rgb(64.797974%, 65.040588%, 64.787292%)" stop-opacity="1"/>
<stop offset="0.132812" stop-color="rgb(65.060425%, 65.245056%, 64.968872%)" stop-opacity="1"/>
<stop offset="0.136719" stop-color="rgb(65.324402%, 65.449524%, 65.153503%)" stop-opacity="1"/>
<stop offset="0.140625" stop-color="rgb(65.568542%, 65.65094%, 65.338135%)" stop-opacity="1"/>
<stop offset="0.144531" stop-color="rgb(65.769958%, 65.846252%, 65.525818%)" stop-opacity="1"/>
<stop offset="0.148438" stop-color="rgb(65.943909%, 66.033936%, 65.715027%)" stop-opacity="1"/>
<stop offset="0.152344" stop-color="rgb(66.119385%, 66.22467%, 65.905762%)" stop-opacity="1"/>
<stop offset="0.15625" stop-color="rgb(66.294861%, 66.400146%, 66.078186%)" stop-opacity="1"/>
<stop offset="0.160156" stop-color="rgb(66.471863%, 66.537476%, 66.200256%)" stop-opacity="1"/>
<stop offset="0.164062" stop-color="rgb(66.648865%, 66.651917%, 66.293335%)" stop-opacity="1"/>
<stop offset="0.167969" stop-color="rgb(66.827393%, 66.764832%, 66.384888%)" stop-opacity="1"/>
<stop offset="0.171875" stop-color="rgb(67.004395%, 66.888428%, 66.491699%)" stop-opacity="1"/>
<stop offset="0.175781" stop-color="rgb(67.181396%, 67.054749%, 66.650391%)" stop-opacity="1"/>
<stop offset="0.179688" stop-color="rgb(67.356873%, 67.245483%, 66.842651%)" stop-opacity="1"/>
<stop offset="0.183594" stop-color="rgb(67.5354%, 67.43927%, 67.036438%)" stop-opacity="1"/>
<stop offset="0.1875" stop-color="rgb(67.710876%, 67.631531%, 67.230225%)" stop-opacity="1"/>
<stop offset="0.191406" stop-color="rgb(67.889404%, 67.825317%, 67.425537%)" stop-opacity="1"/>
<stop offset="0.195312" stop-color="rgb(68.06488%, 68.019104%, 67.62085%)" stop-opacity="1"/>
<stop offset="0.199219" stop-color="rgb(68.243408%, 68.214417%, 67.817688%)" stop-opacity="1"/>
<stop offset="0.203125" stop-color="rgb(68.42041%, 68.408203%, 68.013%)" stop-opacity="1"/>
<stop offset="0.207031" stop-color="rgb(68.598938%, 68.603516%, 68.211365%)" stop-opacity="1"/>
<stop offset="0.210938" stop-color="rgb(68.77594%, 68.798828%, 68.408203%)" stop-opacity="1"/>
<stop offset="0.214844" stop-color="rgb(68.955994%, 68.995667%, 68.606567%)" stop-opacity="1"/>
<stop offset="0.21875" stop-color="rgb(69.128418%, 69.186401%, 68.803406%)" stop-opacity="1"/>
<stop offset="0.222656" stop-color="rgb(69.258118%, 69.329834%, 68.989563%)" stop-opacity="1"/>
<stop offset="0.226562" stop-color="rgb(69.346619%, 69.430542%, 69.163513%)" stop-opacity="1"/>
<stop offset="0.230469" stop-color="rgb(69.436646%, 69.529724%, 69.337463%)" stop-opacity="1"/>
<stop offset="0.234375" stop-color="rgb(69.526672%, 69.631958%, 69.509888%)" stop-opacity="1"/>
<stop offset="0.238281" stop-color="rgb(69.664001%, 69.78302%, 69.659424%)" stop-opacity="1"/>
<stop offset="0.242188" stop-color="rgb(69.842529%, 69.979858%, 69.787598%)" stop-opacity="1"/>
<stop offset="0.246094" stop-color="rgb(70.024109%, 70.178223%, 69.915771%)" stop-opacity="1"/>
<stop offset="0.25" stop-color="rgb(70.202637%, 70.375061%, 70.043945%)" stop-opacity="1"/>
<stop offset="0.253906" stop-color="rgb(70.474243%, 70.594788%, 70.207214%)" stop-opacity="1"/>
<stop offset="0.261719" stop-color="rgb(70.835876%, 70.834351%, 70.405579%)" stop-opacity="1"/>
<stop offset="0.269531" stop-color="rgb(71.19751%, 71.153259%, 70.704651%)" stop-opacity="1"/>
<stop offset="0.277344" stop-color="rgb(71.559143%, 71.554565%, 71.113586%)" stop-opacity="1"/>
<stop offset="0.285156" stop-color="rgb(71.922302%, 71.885681%, 71.499634%)" stop-opacity="1"/>
<stop offset="0.292969" stop-color="rgb(72.285461%, 72.138977%, 71.856689%)" stop-opacity="1"/>
<stop offset="0.300781" stop-color="rgb(72.650146%, 72.45636%, 72.172546%)" stop-opacity="1"/>
<stop offset="0.308594" stop-color="rgb(73.014832%, 72.85614%, 72.444153%)" stop-opacity="1"/>
<stop offset="0.316406" stop-color="rgb(73.381042%, 73.196411%, 72.75238%)" stop-opacity="1"/>
<stop offset="0.324219" stop-color="rgb(73.745728%, 73.458862%, 73.109436%)" stop-opacity="1"/>
<stop offset="0.332031" stop-color="rgb(74.113464%, 73.777771%, 73.434448%)" stop-opacity="1"/>
<stop offset="0.339844" stop-color="rgb(74.481201%, 74.177551%, 73.71521%)" stop-opacity="1"/>
<stop offset="0.347656" stop-color="rgb(74.848938%, 74.526978%, 73.965454%)" stop-opacity="1"/>
<stop offset="0.355469" stop-color="rgb(75.216675%, 74.795532%, 74.183655%)" stop-opacity="1"/>
<stop offset="0.363281" stop-color="rgb(75.585938%, 75.112915%, 74.481201%)" stop-opacity="1"/>
<stop offset="0.371094" stop-color="rgb(75.956726%, 75.517273%, 74.891663%)" stop-opacity="1"/>
<stop offset="0.378906" stop-color="rgb(76.25885%, 75.863647%, 75.306702%)" stop-opacity="1"/>
<stop offset="0.386719" stop-color="rgb(76.469421%, 76.107788%, 75.692749%)" stop-opacity="1"/>
<stop offset="0.394531" stop-color="rgb(76.646423%, 76.296997%, 75.965881%)" stop-opacity="1"/>
<stop offset="0.398438" stop-color="rgb(76.870728%, 76.493835%, 76.123047%)" stop-opacity="1"/>
<stop offset="0.402344" stop-color="rgb(77.148438%, 76.728821%, 76.264954%)" stop-opacity="1"/>
<stop offset="0.40625" stop-color="rgb(77.427673%, 76.963806%, 76.40686%)" stop-opacity="1"/>
<stop offset="0.410156" stop-color="rgb(77.723694%, 77.288818%, 76.675415%)" stop-opacity="1"/>
<stop offset="0.417969" stop-color="rgb(77.973938%, 77.690125%, 77.099609%)" stop-opacity="1"/>
<stop offset="0.425781" stop-color="rgb(78.222656%, 78.038025%, 77.478027%)" stop-opacity="1"/>
<stop offset="0.433594" stop-color="rgb(78.564453%, 78.323364%, 77.74353%)" stop-opacity="1"/>
<stop offset="0.441406" stop-color="rgb(78.938293%, 78.640747%, 78.039551%)" stop-opacity="1"/>
<stop offset="0.449219" stop-color="rgb(79.315186%, 79.046631%, 78.453064%)" stop-opacity="1"/>
<stop offset="0.457031" stop-color="rgb(79.692078%, 79.43573%, 78.845215%)" stop-opacity="1"/>
<stop offset="0.464844" stop-color="rgb(80.06897%, 79.740906%, 79.124451%)" stop-opacity="1"/>
<stop offset="0.472656" stop-color="rgb(80.444336%, 80.056763%, 79.418945%)" stop-opacity="1"/>
<stop offset="0.480469" stop-color="rgb(80.82428%, 80.462646%, 79.832458%)" stop-opacity="1"/>
<stop offset="0.488281" stop-color="rgb(81.20575%, 80.909729%, 80.300903%)" stop-opacity="1"/>
<stop offset="0.496094" stop-color="rgb(81.587219%, 81.358337%, 80.770874%)" stop-opacity="1"/>
<stop offset="0.503906" stop-color="rgb(81.874084%, 81.695557%, 81.124878%)" stop-opacity="1"/>
<stop offset="0.507812" stop-color="rgb(82.064819%, 81.880188%, 81.34613%)" stop-opacity="1"/>
<stop offset="0.511719" stop-color="rgb(82.252502%, 82.022095%, 81.549072%)" stop-opacity="1"/>
<stop offset="0.515625" stop-color="rgb(82.443237%, 82.162476%, 81.752014%)" stop-opacity="1"/>
<stop offset="0.519531" stop-color="rgb(82.63092%, 82.302856%, 81.954956%)" stop-opacity="1"/>
<stop offset="0.523438" stop-color="rgb(82.873535%, 82.543945%, 82.240295%)" stop-opacity="1"/>
<stop offset="0.535156" stop-color="rgb(83.071899%, 82.774353%, 82.485962%)" stop-opacity="1"/>
<stop offset="0.539062" stop-color="rgb(83.209229%, 82.93457%, 82.621765%)" stop-opacity="1"/>
<stop offset="0.542969" stop-color="rgb(83.39386%, 83.151245%, 82.777405%)" stop-opacity="1"/>
<stop offset="0.546875" stop-color="rgb(83.587646%, 83.378601%, 82.93457%)" stop-opacity="1"/>
<stop offset="0.550781" stop-color="rgb(83.779907%, 83.604431%, 83.091736%)" stop-opacity="1"/>
<stop offset="0.554688" stop-color="rgb(83.972168%, 83.798218%, 83.236694%)" stop-opacity="1"/>
<stop offset="0.558594" stop-color="rgb(84.162903%, 83.94928%, 83.364868%)" stop-opacity="1"/>
<stop offset="0.5625" stop-color="rgb(84.353638%, 84.089661%, 83.486938%)" stop-opacity="1"/>
<stop offset="0.566406" stop-color="rgb(84.544373%, 84.230042%, 83.610535%)" stop-opacity="1"/>
<stop offset="0.570312" stop-color="rgb(84.736633%, 84.402466%, 83.778381%)" stop-opacity="1"/>
<stop offset="0.574219" stop-color="rgb(84.928894%, 84.620667%, 84.005737%)" stop-opacity="1"/>
<stop offset="0.578125" stop-color="rgb(85.124207%, 84.854126%, 84.251404%)" stop-opacity="1"/>
<stop offset="0.582031" stop-color="rgb(85.317993%, 85.08606%, 84.498596%)" stop-opacity="1"/>
<stop offset="0.585938" stop-color="rgb(85.513306%, 85.290527%, 84.706116%)" stop-opacity="1"/>
<stop offset="0.589844" stop-color="rgb(85.704041%, 85.449219%, 84.854126%)" stop-opacity="1"/>
<stop offset="0.59375" stop-color="rgb(85.896301%, 85.592651%, 84.979248%)" stop-opacity="1"/>
<stop offset="0.597656" stop-color="rgb(86.087036%, 85.734558%, 85.10437%)" stop-opacity="1"/>
<stop offset="0.601562" stop-color="rgb(86.347961%, 85.987854%, 85.354614%)" stop-opacity="1"/>
<stop offset="0.613281" stop-color="rgb(86.564636%, 86.228943%, 85.606384%)" stop-opacity="1"/>
<stop offset="0.617188" stop-color="rgb(86.688232%, 86.378479%, 85.765076%)" stop-opacity="1"/>
<stop offset="0.621094" stop-color="rgb(86.860657%, 86.585999%, 85.984802%)" stop-opacity="1"/>
<stop offset="0.625" stop-color="rgb(87.057495%, 86.82251%, 86.238098%)" stop-opacity="1"/>
<stop offset="0.628906" stop-color="rgb(87.350464%, 87.158203%, 86.58905%)" stop-opacity="1"/>
<stop offset="0.636719" stop-color="rgb(87.739563%, 87.519836%, 86.943054%)" stop-opacity="1"/>
<stop offset="0.644531" stop-color="rgb(88.1073%, 87.823486%, 87.210083%)" stop-opacity="1"/>
<stop offset="0.652344" stop-color="rgb(88.38501%, 88.192749%, 87.512207%)" stop-opacity="1"/>
<stop offset="0.660156" stop-color="rgb(88.589478%, 88.597107%, 87.852478%)" stop-opacity="1"/>
<stop offset="0.667969" stop-color="rgb(88.792419%, 88.917542%, 88.246155%)" stop-opacity="1"/>
<stop offset="0.675781" stop-color="rgb(89.002991%, 89.167786%, 88.668823%)" stop-opacity="1"/>
<stop offset="0.683594" stop-color="rgb(89.309692%, 89.445496%, 89.009094%)" stop-opacity="1"/>
<stop offset="0.691406" stop-color="rgb(89.697266%, 89.741516%, 89.274597%)" stop-opacity="1"/>
<stop offset="0.699219" stop-color="rgb(90.084839%, 90.040588%, 89.543152%)" stop-opacity="1"/>
<stop offset="0.707031" stop-color="rgb(90.466309%, 90.344238%, 89.813232%)" stop-opacity="1"/>
<stop offset="0.714844" stop-color="rgb(90.760803%, 90.711975%, 90.12146%)" stop-opacity="1"/>
<stop offset="0.722656" stop-color="rgb(90.9729%, 91.136169%, 90.466309%)" stop-opacity="1"/>
<stop offset="0.730469" stop-color="rgb(91.27655%, 91.505432%, 90.866089%)" stop-opacity="1"/>
<stop offset="0.738281" stop-color="rgb(91.665649%, 91.815186%, 91.317749%)" stop-opacity="1"/>
<stop offset="0.746094" stop-color="rgb(92.062378%, 92.219543%, 91.815186%)" stop-opacity="1"/>
<stop offset="0.761719" stop-color="rgb(92.358398%, 92.54303%, 92.152405%)" stop-opacity="1"/>
<stop offset="0.765625" stop-color="rgb(92.552185%, 92.697144%, 92.292786%)" stop-opacity="1"/>
<stop offset="0.769531" stop-color="rgb(92.749023%, 92.849731%, 92.430115%)" stop-opacity="1"/>
<stop offset="0.773438" stop-color="rgb(92.944336%, 93.002319%, 92.56897%)" stop-opacity="1"/>
<stop offset="0.777344" stop-color="rgb(93.09845%, 93.145752%, 92.747498%)" stop-opacity="1"/>
<stop offset="0.78125" stop-color="rgb(93.205261%, 93.276978%, 92.970276%)" stop-opacity="1"/>
<stop offset="0.785156" stop-color="rgb(93.305969%, 93.406677%, 93.197632%)" stop-opacity="1"/>
<stop offset="0.789062" stop-color="rgb(93.406677%, 93.534851%, 93.424988%)" stop-opacity="1"/>
<stop offset="0.792969" stop-color="rgb(93.545532%, 93.675232%, 93.618774%)" stop-opacity="1"/>
<stop offset="0.796875" stop-color="rgb(93.734741%, 93.829346%, 93.768311%)" stop-opacity="1"/>
<stop offset="0.800781" stop-color="rgb(93.93158%, 93.983459%, 93.908691%)" stop-opacity="1"/>
<stop offset="0.804688" stop-color="rgb(94.128418%, 94.137573%, 94.049072%)" stop-opacity="1"/>
<stop offset="0.808594" stop-color="rgb(94.325256%, 94.294739%, 94.226074%)" stop-opacity="1"/>
<stop offset="0.8125" stop-color="rgb(94.522095%, 94.454956%, 94.450378%)" stop-opacity="1"/>
<stop offset="0.816406" stop-color="rgb(94.818115%, 94.694519%, 94.802856%)" stop-opacity="1"/>
<stop offset="0.824219" stop-color="rgb(95.217896%, 95.091248%, 95.231628%)" stop-opacity="1"/>
<stop offset="0.832031" stop-color="rgb(95.623779%, 95.581055%, 95.610046%)" stop-opacity="1"/>
<stop offset="0.839844" stop-color="rgb(95.947266%, 95.982361%, 95.94574%)" stop-opacity="1"/>
<stop offset="0.847656" stop-color="rgb(96.273804%, 96.391296%, 96.376038%)" stop-opacity="1"/>
<stop offset="0.863281" stop-color="rgb(96.682739%, 96.907043%, 96.940613%)" stop-opacity="1"/>
<stop offset="0.878906" stop-color="rgb(97.061157%, 97.343445%, 97.407532%)" stop-opacity="1"/>
<stop offset="0.890625" stop-color="rgb(97.331238%, 97.55249%, 97.595215%)" stop-opacity="1"/>
<stop offset="0.894531" stop-color="rgb(97.523499%, 97.613525%, 97.605896%)" stop-opacity="1"/>
<stop offset="0.898438" stop-color="rgb(97.715759%, 97.673035%, 97.616577%)" stop-opacity="1"/>
<stop offset="0.902344" stop-color="rgb(97.993469%, 97.879028%, 97.796631%)" stop-opacity="1"/>
<stop offset="0.914062" stop-color="rgb(98.278809%, 98.184204%, 98.11554%)" stop-opacity="1"/>
<stop offset="0.921875" stop-color="rgb(98.484802%, 98.443604%, 98.400879%)" stop-opacity="1"/>
<stop offset="0.929688" stop-color="rgb(98.794556%, 98.83728%, 98.834229%)" stop-opacity="1"/>
<stop offset="0.945312" stop-color="rgb(99.156189%, 99.29657%, 99.339294%)" stop-opacity="1"/>
<stop offset="0.957031" stop-color="rgb(99.414062%, 99.62616%, 99.702454%)" stop-opacity="1"/>
<stop offset="0.964844" stop-color="rgb(99.714661%, 99.865723%, 99.92218%)" stop-opacity="1"/>
<stop offset="0.980469" stop-color="rgb(99.95575%, 99.984741%, 99.996948%)" stop-opacity="1"/>
<stop offset="1" stop-color="rgb(100%, 100%, 100%)" stop-opacity="1"/>
</radialGradient>
</defs>
<path fill-rule="nonzero" fill="rgb(12.860107%, 11.213684%, 11.195374%)" fill-opacity="1" d="M 2091.699219 202.648438 L 2052.25 98.929688 L 2070.800781 98.929688 L 2093.070312 161.039062 C 2095.46875 167.75 2097.691406 174.71875 2099.710938 181.941406 C 2101.269531 176.46875 2103.449219 169.898438 2106.25 162.21875 L 2129.300781 98.929688 L 2147.359375 98.929688 L 2108.109375 202.648438 L 2091.699219 202.648438 "/>
<path fill-rule="nonzero" fill="rgb(12.860107%, 11.213684%, 11.195374%)" fill-opacity="1" d="M 2229.101562 150.589844 C 2222.71875 153.199219 2213.148438 155.410156 2200.390625 157.238281 C 2193.160156 158.28125 2188.050781 159.449219 2185.058594 160.75 C 2182.058594 162.050781 2179.75 163.960938 2178.128906 166.460938 C 2176.5 168.96875 2175.679688 171.75 2175.679688 174.808594 C 2175.679688 179.5 2177.460938 183.410156 2181.011719 186.53125 C 2184.550781 189.660156 2189.75 191.21875 2196.578125 191.21875 C 2203.351562 191.21875 2209.378906 189.738281 2214.648438 186.78125 C 2219.921875 183.808594 2223.789062 179.761719 2226.269531 174.621094 C 2228.160156 170.648438 2229.101562 164.789062 2229.101562 157.039062 Z M 2230.570312 189.851562 C 2224.058594 195.390625 2217.789062 199.289062 2211.769531 201.570312 C 2205.75 203.851562 2199.28125 204.988281 2192.378906 204.988281 C 2180.988281 204.988281 2172.230469 202.210938 2166.109375 196.640625 C 2159.988281 191.070312 2156.929688 183.960938 2156.929688 175.300781 C 2156.929688 170.21875 2158.089844 165.589844 2160.398438 161.390625 C 2162.710938 157.191406 2165.738281 153.820312 2169.480469 151.28125 C 2173.230469 148.738281 2177.441406 146.820312 2182.128906 145.519531 C 2185.578125 144.609375 2190.789062 143.730469 2197.75 142.878906 C 2211.949219 141.191406 2222.398438 139.171875 2229.101562 136.820312 C 2229.171875 134.421875 2229.199219 132.890625 2229.199219 132.238281 C 2229.199219 125.070312 2227.539062 120.03125 2224.21875 117.101562 C 2219.730469 113.128906 2213.050781 111.140625 2204.199219 111.140625 C 2195.929688 111.140625 2189.828125 112.589844 2185.890625 115.488281 C 2181.949219 118.390625 2179.039062 123.511719 2177.148438 130.871094 L 2159.960938 128.519531 C 2161.519531 121.171875 2164.089844 115.230469 2167.679688 110.699219 C 2171.261719 106.179688 2176.429688 102.691406 2183.199219 100.25 C 2189.96875 97.808594 2197.820312 96.589844 2206.738281 96.589844 C 2215.589844 96.589844 2222.789062 97.628906 2228.320312 99.71875 C 2233.851562 101.800781 2237.921875 104.421875 2240.53125 107.578125 C 2243.128906 110.738281 2244.949219 114.71875 2246 119.539062 C 2246.578125 122.539062 2246.878906 127.941406 2246.878906 135.75 L 2246.878906 159.191406 C 2246.878906 175.53125 2247.25 185.859375 2248 190.191406 C 2248.75 194.519531 2250.230469 198.671875 2252.441406 202.648438 L 2234.078125 202.648438 C 2232.261719 199 2231.089844 194.738281 2230.570312 189.851562 "/>
<path fill-rule="nonzero" fill="rgb(12.860107%, 11.213684%, 11.195374%)" fill-opacity="1" d="M 2273.730469 202.648438 L 2273.730469 59.480469 L 2291.308594 59.480469 L 2291.308594 202.648438 L 2273.730469 202.648438 "/>
<path fill-rule="nonzero" fill="rgb(12.860107%, 11.213684%, 11.195374%)" fill-opacity="1" d="M 2386.519531 202.648438 L 2386.519531 187.410156 C 2378.449219 199.128906 2367.480469 204.988281 2353.609375 204.988281 C 2347.488281 204.988281 2341.78125 203.820312 2336.46875 201.46875 C 2331.171875 199.128906 2327.230469 196.191406 2324.660156 192.640625 C 2322.089844 189.089844 2320.28125 184.738281 2319.238281 179.601562 C 2318.519531 176.148438 2318.160156 170.679688 2318.160156 163.191406 L 2318.160156 98.929688 L 2335.738281 98.929688 L 2335.738281 156.449219 C 2335.738281 165.628906 2336.101562 171.820312 2336.820312 175.011719 C 2337.921875 179.628906 2340.269531 183.261719 2343.851562 185.898438 C 2347.429688 188.53125 2351.859375 189.851562 2357.128906 189.851562 C 2362.398438 189.851562 2367.351562 188.5 2371.96875 185.800781 C 2376.589844 183.101562 2379.871094 179.421875 2381.789062 174.761719 C 2383.710938 170.109375 2384.671875 163.359375 2384.671875 154.5 L 2384.671875 98.929688 L 2402.25 98.929688 L 2402.25 202.648438 L 2386.519531 202.648438 "/>
<path fill-rule="nonzero" fill="rgb(12.860107%, 11.213684%, 11.195374%)" fill-opacity="1" d="M 2443.070312 140.828125 L 2500.980469 140.828125 C 2500.199219 132.109375 2497.980469 125.558594 2494.339844 121.199219 C 2488.738281 114.429688 2481.480469 111.039062 2472.558594 111.039062 C 2464.488281 111.039062 2457.699219 113.75 2452.199219 119.148438 C 2446.691406 124.550781 2443.648438 131.78125 2443.070312 140.828125 Z M 2500.78125 169.25 L 2518.949219 171.488281 C 2516.078125 182.109375 2510.769531 190.339844 2503.03125 196.199219 C 2495.28125 202.058594 2485.378906 204.988281 2473.339844 204.988281 C 2458.171875 204.988281 2446.140625 200.320312 2437.261719 190.980469 C 2428.371094 181.628906 2423.929688 168.53125 2423.929688 151.671875 C 2423.929688 134.21875 2428.421875 120.679688 2437.398438 111.039062 C 2446.390625 101.410156 2458.039062 96.589844 2472.359375 96.589844 C 2486.230469 96.589844 2497.558594 101.308594 2506.351562 110.75 C 2515.140625 120.191406 2519.53125 133.46875 2519.53125 150.589844 C 2519.53125 151.640625 2519.5 153.199219 2519.429688 155.28125 L 2442.089844 155.28125 C 2442.738281 166.679688 2445.960938 175.398438 2451.761719 181.449219 C 2457.550781 187.511719 2464.78125 190.539062 2473.441406 190.539062 C 2479.878906 190.539062 2485.378906 188.839844 2489.941406 185.460938 C 2494.5 182.070312 2498.109375 176.671875 2500.78125 169.25 "/>
<path fill-rule="nonzero" fill="rgb(12.860107%, 11.213684%, 11.195374%)" fill-opacity="1" d="M 2596.679688 202.648438 L 2596.679688 98.929688 L 2614.261719 98.929688 L 2614.261719 202.648438 Z M 2596.679688 79.699219 L 2596.679688 59.480469 L 2614.261719 59.480469 L 2614.261719 79.699219 L 2596.679688 79.699219 "/>
<path fill-rule="nonzero" fill="rgb(12.860107%, 11.213684%, 11.195374%)" fill-opacity="1" d="M 2708.691406 164.660156 L 2725.980469 166.898438 C 2724.089844 178.820312 2719.25 188.140625 2711.46875 194.878906 C 2703.691406 201.621094 2694.140625 204.988281 2682.808594 204.988281 C 2668.621094 204.988281 2657.210938 200.351562 2648.578125 191.070312 C 2639.960938 181.800781 2635.640625 168.5 2635.640625 151.179688 C 2635.640625 139.980469 2637.5 130.191406 2641.210938 121.789062 C 2644.921875 113.390625 2650.570312 107.089844 2658.148438 102.890625 C 2665.738281 98.691406 2673.988281 96.589844 2682.910156 96.589844 C 2694.171875 96.589844 2703.378906 99.441406 2710.550781 105.140625 C 2717.710938 110.828125 2722.300781 118.921875 2724.320312 129.398438 L 2707.230469 132.039062 C 2705.601562 125.070312 2702.71875 119.828125 2698.578125 116.320312 C 2694.449219 112.800781 2689.449219 111.039062 2683.589844 111.039062 C 2674.738281 111.039062 2667.539062 114.21875 2662.011719 120.558594 C 2656.480469 126.910156 2653.710938 136.960938 2653.710938 150.691406 C 2653.710938 164.621094 2656.378906 174.75 2661.71875 181.058594 C 2667.058594 187.378906 2674.019531 190.539062 2682.621094 190.539062 C 2689.519531 190.539062 2695.28125 188.421875 2699.898438 184.191406 C 2704.519531 179.960938 2707.449219 173.449219 2708.691406 164.660156 "/>
<path fill-rule="nonzero" fill="rgb(12.860107%, 11.213684%, 11.195374%)" fill-opacity="1" d="M 2752.539062 150.789062 C 2752.539062 164.070312 2755.441406 174.019531 2761.230469 180.621094 C 2767.019531 187.230469 2774.320312 190.539062 2783.109375 190.539062 C 2791.828125 190.539062 2799.089844 187.21875 2804.878906 180.570312 C 2810.679688 173.941406 2813.570312 163.808594 2813.570312 150.199219 C 2813.570312 137.378906 2810.660156 127.660156 2804.828125 121.050781 C 2799.011719 114.449219 2791.761719 111.140625 2783.109375 111.140625 C 2774.320312 111.140625 2767.019531 114.429688 2761.230469 121.011719 C 2755.441406 127.578125 2752.539062 137.511719 2752.539062 150.789062 Z M 2734.46875 150.789062 C 2734.46875 131.589844 2739.808594 117.359375 2750.488281 108.109375 C 2759.410156 100.429688 2770.28125 96.589844 2783.109375 96.589844 C 2797.359375 96.589844 2809.019531 101.261719 2818.070312 110.601562 C 2827.121094 119.949219 2831.640625 132.859375 2831.640625 149.320312 C 2831.640625 162.671875 2829.640625 173.171875 2825.628906 180.820312 C 2821.628906 188.46875 2815.800781 194.410156 2808.148438 198.640625 C 2800.5 202.871094 2792.148438 204.988281 2783.109375 204.988281 C 2768.589844 204.988281 2756.851562 200.339844 2747.898438 191.019531 C 2738.949219 181.710938 2734.46875 168.300781 2734.46875 150.789062 "/>
<path fill-rule="nonzero" fill="rgb(12.860107%, 11.213684%, 11.195374%)" fill-opacity="1" d="M 2852.25 202.648438 L 2852.25 98.929688 L 2868.070312 98.929688 L 2868.070312 113.679688 C 2875.679688 102.289062 2886.691406 96.589844 2901.070312 96.589844 C 2907.320312 96.589844 2913.070312 97.710938 2918.308594 99.960938 C 2923.550781 102.210938 2927.46875 105.148438 2930.078125 108.800781 C 2932.679688 112.441406 2934.5 116.769531 2935.550781 121.789062 C 2936.199219 125.039062 2936.519531 130.738281 2936.519531 138.878906 L 2936.519531 202.648438 L 2918.949219 202.648438 L 2918.949219 139.558594 C 2918.949219 132.398438 2918.261719 127.039062 2916.890625 123.488281 C 2915.53125 119.949219 2913.101562 117.109375 2909.621094 115 C 2906.140625 112.878906 2902.050781 111.820312 2897.359375 111.820312 C 2889.878906 111.820312 2883.410156 114.199219 2877.980469 118.949219 C 2872.539062 123.710938 2869.820312 132.71875 2869.820312 146.011719 L 2869.820312 202.648438 L 2852.25 202.648438 "/>
<g clip-path="url(#clip-0)">
<g clip-path="url(#clip-1)">
<g clip-path="url(#clip-2)">
<path fill-rule="nonzero" fill="url(#radial-pattern-0)" d="M 1984.03125 4347.539062 L 1984.03125 4440.519531 L 3015.96875 4440.519531 L 3015.96875 4347.539062 Z M 1984.03125 4347.539062 "/>
</g>
</g>
</g>
<path fill-rule="nonzero" fill="rgb(12.860107%, 11.213684%, 11.195374%)" fill-opacity="1" d="M 2435.449219 1793.671875 L 2022.839844 1329.210938 L 1610.210938 1793.671875 Z M 2435.449219 1793.671875 "/>
<path fill-rule="nonzero" fill="rgb(12.860107%, 11.213684%, 11.195374%)" fill-opacity="1" d="M 1616.851562 1869.101562 L 2020.101562 2919.589844 L 2025.550781 2919.589844 L 2428.789062 1869.101562 L 1616.851562 1869.101562 "/>
<path fill-rule="nonzero" fill="rgb(12.860107%, 11.213684%, 11.195374%)" fill-opacity="1" d="M 1509.320312 1793.671875 L 1518.949219 1782.828125 L 1398.261719 1272.429688 L 1388.058594 1272.429688 L 828.808594 1793.671875 L 1509.320312 1793.671875 "/>
<path fill-rule="nonzero" fill="rgb(12.860107%, 11.213684%, 11.195374%)" fill-opacity="1" d="M 2073.269531 1272.429688 L 2465.511719 1713.929688 L 2569.910156 1272.429688 Z M 2073.269531 1272.429688 "/>
<path fill-rule="nonzero" fill="rgb(12.860107%, 11.213684%, 11.195374%)" fill-opacity="1" d="M 1580.171875 1713.929688 L 1972.390625 1272.429688 L 1475.78125 1272.429688 Z M 1580.171875 1713.929688 "/>
<path fill-rule="nonzero" fill="rgb(12.860107%, 11.213684%, 11.195374%)" fill-opacity="1" d="M 2647.398438 1272.429688 L 2526.710938 1782.828125 L 2536.339844 1793.671875 L 3143.480469 1793.671875 L 2655.058594 1272.429688 L 2647.398438 1272.429688 "/>
<path fill-rule="nonzero" fill="rgb(12.860107%, 11.213684%, 11.195374%)" fill-opacity="1" d="M 1539.351562 1869.101562 L 820.5625 1869.101562 L 1919.949219 2860.589844 Z M 1539.351562 1869.101562 "/>
<path fill-rule="nonzero" fill="rgb(12.860107%, 11.213684%, 11.195374%)" fill-opacity="1" d="M 2506.320312 1869.101562 L 2129.628906 2850.390625 L 3148.910156 1869.101562 Z M 2506.320312 1869.101562 "/>
<path fill-rule="nonzero" fill="rgb(12.860107%, 11.213684%, 11.195374%)" fill-opacity="1" d="M 2064.410156 985.71875 L 1981.269531 985.71875 L 1945.640625 383.890625 L 2100.050781 383.890625 L 2064.410156 985.71875 "/>
<path fill-rule="nonzero" fill="rgb(12.860107%, 11.213684%, 11.195374%)" fill-opacity="1" d="M 2315.871094 1043.640625 L 2242.859375 1003.859375 L 2499.460938 458.300781 L 2635.078125 532.179688 L 2315.871094 1043.640625 "/>
<path fill-rule="nonzero" fill="rgb(12.860107%, 11.213684%, 11.195374%)" fill-opacity="1" d="M 2538.238281 1178.539062 L 2488.851562 1111.628906 L 2951.871094 725.5 L 3043.578125 849.738281 L 2538.238281 1178.539062 "/>
<path fill-rule="nonzero" fill="rgb(12.860107%, 11.213684%, 11.195374%)" fill-opacity="1" d="M 1507.449219 1178.539062 L 1556.828125 1111.628906 L 1093.820312 725.5 L 1002.109375 849.738281 L 1507.449219 1178.539062 "/>
<path fill-rule="nonzero" fill="rgb(12.860107%, 11.213684%, 11.195374%)" fill-opacity="1" d="M 1729.808594 1043.640625 L 1802.828125 1003.859375 L 1546.230469 458.300781 L 1410.609375 532.179688 L 1729.808594 1043.640625 "/>
<path fill-rule="nonzero" fill="rgb(12.860107%, 11.213684%, 11.195374%)" fill-opacity="1" d="M 3786.800781 3979.941406 C 3758.03125 3979.941406 3734.699219 3956.609375 3734.699219 3927.828125 C 3734.699219 3899.050781 3758.03125 3875.730469 3786.800781 3875.730469 C 3815.578125 3875.730469 3838.910156 3899.050781 3838.910156 3927.828125 C 3838.910156 3956.609375 3815.578125 3979.941406 3786.800781 3979.941406 Z M 3916.828125 3236.21875 L 3593.058594 4005.601562 L 3855.671875 4116.109375 L 4179.441406 3346.730469 L 3916.828125 3236.21875 "/>
<path fill-rule="nonzero" fill="rgb(12.860107%, 11.213684%, 11.195374%)" fill-opacity="1" d="M 3707.03125 3150.800781 C 3548.46875 2985.769531 3205.460938 2833.691406 2804.210938 2992.25 C 2402.960938 3150.800781 2202.328125 3218.761719 1988.761719 3241.410156 C 1775.191406 3264.058594 1716.949219 3319.070312 1716.949219 3387.03125 C 1716.949219 3454.980469 1799.359375 3563.421875 2008.179688 3522.941406 C 2325.300781 3461.449219 2587.410156 3412.910156 2710.371094 3454.980469 C 2833.328125 3497.050781 2813.921875 3565 2742.730469 3539.109375 C 2671.539062 3513.230469 2525.921875 3493.808594 2241.171875 3552.058594 C 1956.398438 3610.300781 1828.398438 3651 1708.671875 3524.800781 C 1588.941406 3398.601562 1697.238281 3269.488281 1697.238281 3269.488281 C 1697.238281 3269.488281 1477.488281 3134.628906 1364.230469 2998.71875 C 1250.980469 2862.808594 1069.769531 2785.148438 1021.230469 2875.75 C 1021.230469 2875.75 956.734375 2850.25 911.140625 2893.671875 C 865.546875 2937.089844 872.273438 2998.890625 904.734375 3050.488281 C 985.632812 3166.988281 1148.53125 3381.871094 1192.730469 3454.980469 C 1256.339844 3560.191406 1348.050781 3590.890625 1445.128906 3645.898438 C 1542.210938 3700.910156 1878.738281 3865.941406 1982.289062 3927.421875 C 2085.839844 3988.898438 2176.449219 4060.101562 2522.691406 3969.488281 C 2868.929688 3878.878906 3166.628906 3746.210938 3360.789062 3830.351562 C 3422.621094 3857.140625 3501.839844 3891.480469 3581.109375 3925.851562 L 3858.871094 3265.820312 C 3802.21875 3232.460938 3748.519531 3193.988281 3707.03125 3150.800781 "/>
</svg>
